<svg width="12" height="14" viewBox="0 0 12 14" fill="none" xmlns="http://www.w3.org/2000/svg">
<path d="M9.75199 8.20236C10.552 8.20236 11.2 8.85036 11.2 9.65036V10.2016H11.196C11.1688 10.8256 10.9976 11.6072 10.2976 12.2456C9.53279 12.944 8.21199 13.4 5.99999 13.4C3.78719 13.4 2.46719 12.944 1.70239 12.2456C1.00239 11.6072 0.831188 10.8248 0.803988 10.2016H0.799988V9.64956C0.799988 8.85036 1.44799 8.20236 2.24799 8.20236H9.75199ZM3.19999 1.39996C2.88173 1.39996 2.5765 1.52639 2.35146 1.75143C2.12642 1.97647 1.99999 2.2817 1.99999 2.59996V5.79996C1.99999 6.11822 2.12642 6.42344 2.35146 6.64849C2.5765 6.87353 2.88173 6.99996 3.19999 6.99996H8.79999C9.11825 6.99996 9.42347 6.87353 9.64852 6.64849C9.87356 6.42344 9.99999 6.11822 9.99999 5.79996V2.59996C9.99999 2.2817 9.87356 1.97647 9.64852 1.75143C9.42347 1.52639 9.11825 1.39996 8.79999 1.39996H6.39999V0.999958C6.40225 0.946825 6.39345 0.893801 6.37415 0.844246C6.35485 0.794691 6.32547 0.749685 6.28786 0.71208C6.25026 0.674476 6.20525 0.645092 6.1557 0.625791C6.10614 0.60649 6.05312 0.597693 5.99999 0.599958C5.77919 0.599958 5.59999 0.783958 5.59999 0.999958V1.39996H3.19999ZM3.59999 4.19996C3.59999 3.98778 3.68427 3.7843 3.8343 3.63427C3.98433 3.48424 4.18781 3.39996 4.39999 3.39996C4.61216 3.39996 4.81564 3.48424 4.96567 3.63427C5.1157 3.7843 5.19999 3.98778 5.19999 4.19996C5.19999 4.41213 5.1157 4.61561 4.96567 4.76564C4.81564 4.91567 4.61216 4.99996 4.39999 4.99996C4.18781 4.99996 3.98433 4.91567 3.8343 4.76564C3.68427 4.61561 3.59999 4.41213 3.59999 4.19996ZM6.79999 4.19996C6.79999 3.98778 6.88427 3.7843 7.0343 3.63427C7.18433 3.48424 7.38781 3.39996 7.59999 3.39996C7.81216 3.39996 8.01564 3.48424 8.16567 3.63427C8.3157 3.7843 8.39999 3.98778 8.39999 4.19996C8.39999 4.41213 8.3157 4.61561 8.16567 4.76564C8.01564 4.91567 7.81216 4.99996 7.59999 4.99996C7.38781 4.99996 7.18433 4.91567 7.0343 4.76564C6.88427 4.61561 6.79999 4.41213 6.79999 4.19996Z" fill="white"/>
</svg>
